<mxfile host="app.diagrams.net" agent="Mozilla/5.0 (X11; Linux x86_64; rv:128.0) Gecko/20100101 Firefox/128.0" version="28.1.1">
  <diagram id="pKf6htdYtwWZ1S2jZQ6u" name="Système de Gestion de Candidature">
    <mxGraphModel dx="1426" dy="910" grid="1" gridSize="10" guides="1" tooltips="1" connect="1" arrows="1" fold="1" page="1" pageScale="1" pageWidth="827" pageHeight="1169" math="0" shadow="0">
      <root>
        <mxCell id="0" />
        <mxCell id="1" parent="0" />
        <mxCell id="FTSYI3-ecrguQmc4wKwk-19" value="Présentation" style="swimlane;rounded=1;horizontal=0;fillColor=#e6f4ea;strokeColor=#16a34a;fontStyle=1;startSize=30;childLayout=stackLayout;horizontalStack=0;resizeParent=1;collapsible=0;" vertex="1" parent="1">
          <mxGeometry x="530" y="700" width="360" height="680" as="geometry" />
        </mxCell>
        <mxCell id="FTSYI3-ecrguQmc4wKwk-20" value="&lt;div&gt;Frontend&lt;/div&gt;&lt;div&gt;React + Vite + Tailwind&lt;/div&gt;" style="rounded=1;whiteSpace=wrap;html=1;fillColor=#ffffff;strokeColor=#16a34a;align=center;verticalAlign=middle;shadow=1;" vertex="1" parent="FTSYI3-ecrguQmc4wKwk-19">
          <mxGeometry x="30" width="330" height="90" as="geometry" />
        </mxCell>
        <mxCell id="FTSYI3-ecrguQmc4wKwk-21" value="&lt;div&gt;Pages&lt;/div&gt;&lt;div&gt;Dashboard, Seuils, Alertes, Auth&lt;/div&gt;" style="rounded=1;whiteSpace=wrap;html=1;fillColor=#f0fdf4;strokeColor=#16a34a;align=left;verticalAlign=top;" vertex="1" parent="FTSYI3-ecrguQmc4wKwk-19">
          <mxGeometry x="30" y="90" width="330" height="100" as="geometry" />
        </mxCell>
        <mxCell id="FTSYI3-ecrguQmc4wKwk-22" value="State: AuthContext" style="rounded=1;whiteSpace=wrap;html=1;fillColor=#f0fdf4;strokeColor=#16a34a;align=left;verticalAlign=middle;" vertex="1" parent="FTSYI3-ecrguQmc4wKwk-19">
          <mxGeometry x="30" y="190" width="330" height="60" as="geometry" />
        </mxCell>
        <mxCell id="FTSYI3-ecrguQmc4wKwk-23" value="HTTP client: axios" style="rounded=1;whiteSpace=wrap;html=1;fillColor=#f0fdf4;strokeColor=#16a34a;align=left;verticalAlign=middle;" vertex="1" parent="FTSYI3-ecrguQmc4wKwk-19">
          <mxGeometry x="30" y="250" width="330" height="50" as="geometry" />
        </mxCell>
        <mxCell id="FTSYI3-ecrguQmc4wKwk-24" value="&lt;div&gt;Router&lt;/div&gt;&lt;div&gt;react-router-dom&lt;/div&gt;" style="rounded=1;whiteSpace=wrap;html=1;fillColor=#f0fdf4;strokeColor=#16a34a;align=left;verticalAlign=middle;" vertex="1" parent="FTSYI3-ecrguQmc4wKwk-19">
          <mxGeometry x="30" y="300" width="330" height="60" as="geometry" />
        </mxCell>
        <mxCell id="FTSYI3-ecrguQmc4wKwk-25" value="&lt;div&gt;UI&lt;/div&gt;&lt;div&gt;Composants (NavBar, Card, Button, Input)&lt;/div&gt;" style="rounded=1;whiteSpace=wrap;html=1;fillColor=#f0fdf4;strokeColor=#16a34a;align=left;verticalAlign=top;" vertex="1" parent="FTSYI3-ecrguQmc4wKwk-19">
          <mxGeometry x="30" y="360" width="330" height="70" as="geometry" />
        </mxCell>
        <mxCell id="FTSYI3-ecrguQmc4wKwk-26" value="NavBar + ThemeToggle" style="rounded=1;whiteSpace=wrap;html=1;fillColor=#f0fdf4;strokeColor=#16a34a;align=left;verticalAlign=middle;" vertex="1" parent="FTSYI3-ecrguQmc4wKwk-19">
          <mxGeometry x="30" y="430" width="330" height="50" as="geometry" />
        </mxCell>
        <mxCell id="FTSYI3-ecrguQmc4wKwk-27" value="Métier" style="swimlane;rounded=1;horizontal=0;fillColor=#e8f0fe;strokeColor=#2563eb;fontStyle=1;startSize=30;childLayout=stackLayout;horizontalStack=0;resizeParent=1;collapsible=0;" vertex="1" parent="1">
          <mxGeometry x="1000" y="700" width="360" height="680" as="geometry" />
        </mxCell>
        <mxCell id="FTSYI3-ecrguQmc4wKwk-28" value="API Server\nNode.js + Express" style="rounded=1;whiteSpace=wrap;html=1;fillColor=#ffffff;strokeColor=#2563eb;align=center;verticalAlign=middle;shadow=1;" vertex="1" parent="FTSYI3-ecrguQmc4wKwk-27">
          <mxGeometry x="30" width="330" height="90" as="geometry" />
        </mxCell>
        <mxCell id="FTSYI3-ecrguQmc4wKwk-29" value="&lt;div&gt;Middleware&lt;/div&gt;&lt;div&gt;auth.js&lt;/div&gt;" style="rounded=1;whiteSpace=wrap;html=1;fillColor=#eef2ff;strokeColor=#2563eb;align=left;verticalAlign=middle;" vertex="1" parent="FTSYI3-ecrguQmc4wKwk-27">
          <mxGeometry x="30" y="90" width="330" height="60" as="geometry" />
        </mxCell>
        <mxCell id="FTSYI3-ecrguQmc4wKwk-30" value="&lt;div&gt;Routes&lt;/div&gt;&lt;div&gt;/auth, /users, /mesures, /seuils, /alertes&lt;/div&gt;" style="rounded=1;whiteSpace=wrap;html=1;fillColor=#eef2ff;strokeColor=#2563eb;align=left;verticalAlign=top;" vertex="1" parent="FTSYI3-ecrguQmc4wKwk-27">
          <mxGeometry x="30" y="150" width="330" height="110" as="geometry" />
        </mxCell>
        <mxCell id="FTSYI3-ecrguQmc4wKwk-31" value="&lt;div&gt;Services&lt;/div&gt;&lt;div&gt;mysql.js, mongo.js&lt;/div&gt;" style="rounded=1;whiteSpace=wrap;html=1;fillColor=#eef2ff;strokeColor=#2563eb;align=left;verticalAlign=middle;" vertex="1" parent="FTSYI3-ecrguQmc4wKwk-27">
          <mxGeometry x="30" y="260" width="330" height="70" as="geometry" />
        </mxCell>
        <mxCell id="FTSYI3-ecrguQmc4wKwk-32" value="&lt;div&gt;Auth (JWT)&lt;/div&gt;&lt;div&gt;/login, /register&lt;/div&gt;" style="rounded=1;whiteSpace=wrap;html=1;fillColor=#eef2ff;strokeColor=#2563eb;align=left;verticalAlign=middle;" vertex="1" parent="FTSYI3-ecrguQmc4wKwk-27">
          <mxGeometry x="30" y="330" width="330" height="60" as="geometry" />
        </mxCell>
        <mxCell id="FTSYI3-ecrguQmc4wKwk-33" value="Données" style="swimlane;rounded=1;horizontal=0;fillColor=#fff4e6;strokeColor=#ea580c;fontStyle=1;startSize=30;childLayout=stackLayout;horizontalStack=0;resizeParent=1;collapsible=0;" vertex="1" parent="1">
          <mxGeometry x="1450" y="700" width="360" height="680" as="geometry" />
        </mxCell>
        <mxCell id="FTSYI3-ecrguQmc4wKwk-34" value="&lt;div&gt;MySQL&lt;/div&gt;&lt;div&gt;Utilisateurs, Seuils&lt;/div&gt;" style="shape=cylinder;whiteSpace=wrap;html=1;fillColor=#ffffff;strokeColor=#ea580c;align=center;verticalAlign=middle;shadow=1;" vertex="1" parent="FTSYI3-ecrguQmc4wKwk-33">
          <mxGeometry x="30" width="330" height="100" as="geometry" />
        </mxCell>
        <mxCell id="FTSYI3-ecrguQmc4wKwk-35" value="&lt;div&gt;MongoDB&lt;/div&gt;&lt;div&gt;Mesures, Alertes&lt;/div&gt;" style="shape=cylinder;whiteSpace=wrap;html=1;fillColor=#ffffff;strokeColor=#ea580c;align=center;verticalAlign=middle;shadow=1;" vertex="1" parent="FTSYI3-ecrguQmc4wKwk-33">
          <mxGeometry x="30" y="100" width="330" height="100" as="geometry" />
        </mxCell>
        <mxCell id="FTSYI3-ecrguQmc4wKwk-36" value="&lt;div&gt;Simulateur&lt;/div&gt;&lt;div&gt;Node.js (génère mesures)&lt;/div&gt;" style="rounded=1;whiteSpace=wrap;html=1;fillColor=#f5f5f5;strokeColor=#111827;align=center;verticalAlign=middle;dashed=1;" vertex="1" parent="1">
          <mxGeometry x="1015" y="565" width="360" height="50" as="geometry" />
        </mxCell>
        <mxCell id="FTSYI3-ecrguQmc4wKwk-37" value="REST/JSON + JWT" style="endArrow=block;strokeColor=#111827;" edge="1" parent="1" source="FTSYI3-ecrguQmc4wKwk-20" target="FTSYI3-ecrguQmc4wKwk-28">
          <mxGeometry relative="1" as="geometry" />
        </mxCell>
        <mxCell id="FTSYI3-ecrguQmc4wKwk-38" value="SQL" style="endArrow=block;strokeColor=#ea580c;" edge="1" parent="1" source="FTSYI3-ecrguQmc4wKwk-31" target="FTSYI3-ecrguQmc4wKwk-34">
          <mxGeometry relative="1" as="geometry" />
        </mxCell>
        <mxCell id="FTSYI3-ecrguQmc4wKwk-39" value="NoSQL" style="endArrow=block;strokeColor=#ea580c;" edge="1" parent="1" source="FTSYI3-ecrguQmc4wKwk-31" target="FTSYI3-ecrguQmc4wKwk-35">
          <mxGeometry relative="1" as="geometry" />
        </mxCell>
        <mxCell id="FTSYI3-ecrguQmc4wKwk-40" style="endArrow=block;dashed=1;strokeColor=#111827;" edge="1" parent="1" source="FTSYI3-ecrguQmc4wKwk-36" target="FTSYI3-ecrguQmc4wKwk-28">
          <mxGeometry relative="1" as="geometry" />
        </mxCell>
        <mxCell id="FTSYI3-ecrguQmc4wKwk-41" value="Protections" style="endArrow=block;dashed=1;strokeColor=#2563eb;" edge="1" parent="1" source="FTSYI3-ecrguQmc4wKwk-29" target="FTSYI3-ecrguQmc4wKwk-30">
          <mxGeometry relative="1" as="geometry" />
        </mxCell>
        <mxCell id="FTSYI3-ecrguQmc4wKwk-42" value="Appelle services" style="endArrow=block;strokeColor=#2563eb;" edge="1" parent="1" source="FTSYI3-ecrguQmc4wKwk-30" target="FTSYI3-ecrguQmc4wKwk-31">
          <mxGeometry relative="1" as="geometry" />
        </mxCell>
        <mxCell id="FTSYI3-ecrguQmc4wKwk-43" value="&lt;div&gt;Utilisateur&lt;/div&gt;&lt;div&gt;(Navigateur)&lt;/div&gt;" style="rounded=1;whiteSpace=wrap;html=1;fillColor=#ffffff;strokeColor=#111827;align=center;verticalAlign=middle;shadow=1;" vertex="1" parent="1">
          <mxGeometry x="615" y="565" width="220" height="40" as="geometry" />
        </mxCell>
        <mxCell id="FTSYI3-ecrguQmc4wKwk-44" value="HTTP(S)" style="endArrow=block;strokeColor=#111827;" edge="1" parent="1" source="FTSYI3-ecrguQmc4wKwk-43" target="FTSYI3-ecrguQmc4wKwk-20">
          <mxGeometry relative="1" as="geometry" />
        </mxCell>
        <mxCell id="FTSYI3-ecrguQmc4wKwk-45" value="Infrastructure: docker-compose\nServices: backend, mysql, mongodb, simulator (option: frontend)" style="shape=note;whiteSpace=wrap;html=1;size=16;fillColor=#fffbe6;strokeColor=#eab308;shadow=0;" vertex="1" parent="1">
          <mxGeometry x="1460" y="550" width="360" height="120" as="geometry" />
        </mxCell>
      </root>
    </mxGraphModel>
  </diagram>
</mxfile>
